<mxfile host="app.diagrams.net" agent="Mozilla/5.0 (Windows NT 10.0; Win64; x64) AppleWebKit/537.36 (KHTML, like Gecko) Chrome/128.0.0.0 Safari/537.36 Edg/128.0.0.0" version="24.7.12" pages="2">
  <diagram name="Page-1" id="PpCVHT5s35PxnzSJ_ftj">
    <mxGraphModel dx="1042" dy="567" grid="1" gridSize="10" guides="1" tooltips="1" connect="1" arrows="1" fold="1" page="1" pageScale="1" pageWidth="827" pageHeight="1169" math="0" shadow="0">
      <root>
        <mxCell id="0" />
        <mxCell id="1" parent="0" />
        <mxCell id="DfZUmNxaL4MEf1Nwju60-1" value="User" style="shape=umlActor;verticalLabelPosition=bottom;verticalAlign=top;html=1;outlineConnect=0;fontStyle=1;strokeColor=#0000CC;" parent="1" vertex="1">
          <mxGeometry x="10" y="140" width="40" height="90" as="geometry" />
        </mxCell>
        <mxCell id="DfZUmNxaL4MEf1Nwju60-2" value="Oauth" style="html=1;whiteSpace=wrap;fillColor=#3399FF;" parent="1" vertex="1">
          <mxGeometry x="610" y="70" width="110" height="50" as="geometry" />
        </mxCell>
        <mxCell id="DfZUmNxaL4MEf1Nwju60-11" value="" style="shape=flexArrow;endArrow=classic;html=1;rounded=0;entryX=0;entryY=0.25;entryDx=0;entryDy=0;fillColor=#000000;" parent="1" source="DfZUmNxaL4MEf1Nwju60-1" target="DfZUmNxaL4MEf1Nwju60-45" edge="1">
          <mxGeometry width="50" height="50" relative="1" as="geometry">
            <mxPoint x="150" y="200" as="sourcePoint" />
            <mxPoint x="330" y="390" as="targetPoint" />
            <Array as="points">
              <mxPoint x="50" y="250" />
              <mxPoint x="110" y="320" />
              <mxPoint x="230" y="450" />
            </Array>
          </mxGeometry>
        </mxCell>
        <mxCell id="DfZUmNxaL4MEf1Nwju60-12" value="1. Authorize Request" style="edgeLabel;html=1;align=center;verticalAlign=middle;resizable=0;points=[];fontStyle=1" parent="DfZUmNxaL4MEf1Nwju60-11" vertex="1" connectable="0">
          <mxGeometry x="-0.1188" y="2" relative="1" as="geometry">
            <mxPoint as="offset" />
          </mxGeometry>
        </mxCell>
        <mxCell id="DfZUmNxaL4MEf1Nwju60-19" value="" style="shape=flexArrow;endArrow=classic;html=1;rounded=0;entryX=0;entryY=0.5;entryDx=0;entryDy=0;fillColor=#000000;" parent="1" target="DfZUmNxaL4MEf1Nwju60-2" edge="1">
          <mxGeometry width="50" height="50" relative="1" as="geometry">
            <mxPoint x="30" y="190.37878787878788" as="sourcePoint" />
            <mxPoint x="590" y="90" as="targetPoint" />
            <Array as="points">
              <mxPoint x="340" y="157.5" />
            </Array>
          </mxGeometry>
        </mxCell>
        <mxCell id="DfZUmNxaL4MEf1Nwju60-20" value="&lt;b style=&quot;font-size: 11px;&quot;&gt;3. Send Authorization code&lt;/b&gt;" style="edgeLabel;html=1;align=center;verticalAlign=middle;resizable=0;points=[];fontSize=11;" parent="DfZUmNxaL4MEf1Nwju60-19" vertex="1" connectable="0">
          <mxGeometry x="-0.0496" y="4" relative="1" as="geometry">
            <mxPoint as="offset" />
          </mxGeometry>
        </mxCell>
        <mxCell id="DfZUmNxaL4MEf1Nwju60-37" value="" style="html=1;labelBackgroundColor=#ffffff;startArrow=none;startFill=0;startSize=6;endArrow=classic;endFill=1;endSize=6;jettySize=auto;orthogonalLoop=1;strokeWidth=1;dashed=1;fontSize=14;rounded=0;exitX=0.08;exitY=0.053;exitDx=0;exitDy=0;exitPerimeter=0;entryX=1;entryY=0.3333333333333333;entryDx=0;entryDy=0;entryPerimeter=0;" parent="1" source="DfZUmNxaL4MEf1Nwju60-45" target="DfZUmNxaL4MEf1Nwju60-1" edge="1">
          <mxGeometry width="60" height="60" relative="1" as="geometry">
            <mxPoint x="347.5999999999999" y="389.20000000000005" as="sourcePoint" />
            <mxPoint x="300" y="270" as="targetPoint" />
          </mxGeometry>
        </mxCell>
        <mxCell id="DfZUmNxaL4MEf1Nwju60-38" value="2. Redirect with code" style="edgeLabel;html=1;align=center;verticalAlign=middle;resizable=0;points=[];fontStyle=1" parent="DfZUmNxaL4MEf1Nwju60-37" vertex="1" connectable="0">
          <mxGeometry x="0.1859" y="-1" relative="1" as="geometry">
            <mxPoint as="offset" />
          </mxGeometry>
        </mxCell>
        <mxCell id="DfZUmNxaL4MEf1Nwju60-39" value="" style="shape=flexArrow;endArrow=classic;html=1;rounded=0;entryX=0.82;entryY=-0.027;entryDx=0;entryDy=0;entryPerimeter=0;exitX=0.75;exitY=1;exitDx=0;exitDy=0;" parent="1" source="DfZUmNxaL4MEf1Nwju60-2" target="DfZUmNxaL4MEf1Nwju60-45" edge="1">
          <mxGeometry width="50" height="50" relative="1" as="geometry">
            <mxPoint x="820" y="180" as="sourcePoint" />
            <mxPoint x="433.95000000000005" y="392.4" as="targetPoint" />
            <Array as="points">
              <mxPoint x="750" y="370" />
            </Array>
          </mxGeometry>
        </mxCell>
        <mxCell id="DfZUmNxaL4MEf1Nwju60-40" value="4.Token Exchange" style="edgeLabel;html=1;align=center;verticalAlign=middle;resizable=0;points=[];fontStyle=1" parent="DfZUmNxaL4MEf1Nwju60-39" vertex="1" connectable="0">
          <mxGeometry x="-0.1224" y="3" relative="1" as="geometry">
            <mxPoint as="offset" />
          </mxGeometry>
        </mxCell>
        <mxCell id="DfZUmNxaL4MEf1Nwju60-41" value="" style="shape=flexArrow;endArrow=classic;html=1;rounded=0;entryX=0.75;entryY=0.1;entryDx=0;entryDy=0;entryPerimeter=0;exitX=0.073;exitY=-0.032;exitDx=0;exitDy=0;exitPerimeter=0;" parent="1" source="DfZUmNxaL4MEf1Nwju60-2" target="DfZUmNxaL4MEf1Nwju60-1" edge="1">
          <mxGeometry width="50" height="50" relative="1" as="geometry">
            <mxPoint x="549" y="10" as="sourcePoint" />
            <mxPoint x="290" y="282" as="targetPoint" />
            <Array as="points">
              <mxPoint x="240" y="40" />
            </Array>
          </mxGeometry>
        </mxCell>
        <mxCell id="DfZUmNxaL4MEf1Nwju60-42" value="6. Redirect to dashboard" style="edgeLabel;html=1;align=center;verticalAlign=middle;resizable=0;points=[];fontStyle=1" parent="DfZUmNxaL4MEf1Nwju60-41" vertex="1" connectable="0">
          <mxGeometry x="-0.1224" y="3" relative="1" as="geometry">
            <mxPoint as="offset" />
          </mxGeometry>
        </mxCell>
        <mxCell id="DfZUmNxaL4MEf1Nwju60-43" value="" style="html=1;labelBackgroundColor=#ffffff;startArrow=none;startFill=0;startSize=6;endArrow=classic;endFill=1;endSize=6;jettySize=auto;orthogonalLoop=1;strokeWidth=1;dashed=1;fontSize=14;rounded=0;exitX=0.5;exitY=0;exitDx=0;exitDy=0;entryX=0;entryY=1;entryDx=0;entryDy=0;" parent="1" source="DfZUmNxaL4MEf1Nwju60-45" target="DfZUmNxaL4MEf1Nwju60-2" edge="1">
          <mxGeometry width="60" height="60" relative="1" as="geometry">
            <mxPoint x="367.6199999999999" y="392.4" as="sourcePoint" />
            <mxPoint x="116" y="160" as="targetPoint" />
            <Array as="points">
              <mxPoint x="510" y="300" />
            </Array>
          </mxGeometry>
        </mxCell>
        <mxCell id="DfZUmNxaL4MEf1Nwju60-44" value="5. Access Token" style="edgeLabel;html=1;align=center;verticalAlign=middle;resizable=0;points=[];fontStyle=1" parent="DfZUmNxaL4MEf1Nwju60-43" vertex="1" connectable="0">
          <mxGeometry x="0.1859" y="-1" relative="1" as="geometry">
            <mxPoint as="offset" />
          </mxGeometry>
        </mxCell>
        <mxCell id="DfZUmNxaL4MEf1Nwju60-45" value="Google OAuth Server" style="rounded=1;whiteSpace=wrap;html=1;fillColor=#CCFFCC;arcSize=16;" parent="1" vertex="1">
          <mxGeometry x="410" y="480" width="120" height="60" as="geometry" />
        </mxCell>
      </root>
    </mxGraphModel>
  </diagram>
  <diagram id="BmXiilIx6CykKxXbjfUm" name="Credentials Management">
    <mxGraphModel dx="1042" dy="567" grid="1" gridSize="10" guides="1" tooltips="1" connect="1" arrows="1" fold="1" page="1" pageScale="1" pageWidth="827" pageHeight="1169" math="0" shadow="0">
      <root>
        <mxCell id="0" />
        <mxCell id="1" parent="0" />
        <mxCell id="IxsgzMZL5CYzRa_-ci6n-8" value="" style="ellipse;html=1;shape=startState;fillColor=#16d419;strokeColor=#ff0000;fontColor=#00FF00;labelBackgroundColor=#14d411;whiteSpace=wrap;" vertex="1" parent="1">
          <mxGeometry x="80" y="60" width="30" height="30" as="geometry" />
        </mxCell>
        <mxCell id="IxsgzMZL5CYzRa_-ci6n-9" value="" style="edgeStyle=orthogonalEdgeStyle;html=1;verticalAlign=bottom;endArrow=open;endSize=8;strokeColor=#ff0000;rounded=0;" edge="1" source="IxsgzMZL5CYzRa_-ci6n-8" parent="1">
          <mxGeometry relative="1" as="geometry">
            <mxPoint x="160" y="110" as="targetPoint" />
          </mxGeometry>
        </mxCell>
        <mxCell id="IxsgzMZL5CYzRa_-ci6n-10" value="&lt;b&gt;create_credentials(credentials_data)&lt;br&gt;&lt;/b&gt;&lt;br&gt;Key Actions:&lt;br&gt;Parse the credentials data.Extract relevant fields such as:&lt;br&gt;TokenRefresh tokenToken URIClient IDClient secretScopesCreate a Credentials object using this data.Return the Credentials object." style="dashed=0;whiteSpace=wrap;fontStyle=0;html=1;fillColor=#dae8fc;strokeColor=#6c8ebf;" vertex="1" parent="1">
          <mxGeometry x="360" y="90" width="230" height="170" as="geometry" />
        </mxCell>
        <mxCell id="IxsgzMZL5CYzRa_-ci6n-11" value="&lt;b&gt;load_credentials()&lt;br&gt;&lt;/b&gt;Check if credentials are stored in an environment variable (TOKEN_JSON_CONTENT).&lt;div&gt;&lt;br&gt;&lt;div&gt;&lt;i&gt;If present:&lt;br&gt;&lt;/i&gt;Load credentials from the environment variable.Parse the JSON content to return the credentials.&lt;/div&gt;&lt;div&gt;&lt;br&gt;&lt;div&gt;&lt;i&gt;If not present:&lt;br&gt;&lt;/i&gt;Default to local execution.Check for a credentials file (token.json).Read and parse the JSON file from disk.Return the loaded credentials data.&lt;/div&gt;&lt;/div&gt;&lt;/div&gt;" style="dashed=0;align=center;whiteSpace=wrap;html=1;verticalAlign=top;fillColor=#dae8fc;strokeColor=#6c8ebf;" vertex="1" parent="1">
          <mxGeometry x="10" y="110" width="250" height="240" as="geometry" />
        </mxCell>
        <mxCell id="IxsgzMZL5CYzRa_-ci6n-12" value="&lt;b&gt;refresh_credentials(creds)&lt;/b&gt;&lt;div&gt;&lt;b&gt;&lt;br&gt;&lt;/b&gt;Key Actions:&lt;br&gt;Check if the credentials (creds) are expired.If expired:&lt;br&gt;Attempt to refresh the credentials using the refresh token.If refresh is successful:&lt;br&gt;Update the credentials object with new token data.Handle any errors that occur during the refresh process.Return the refreshed (or unchanged, if not expired) credentials.&lt;/div&gt;" style="dashed=0;whiteSpace=wrap;html=1;fillColor=#dae8fc;strokeColor=#6c8ebf;" vertex="1" parent="1">
          <mxGeometry x="600" y="350" width="200" height="220" as="geometry" />
        </mxCell>
        <mxCell id="IxsgzMZL5CYzRa_-ci6n-13" value="&lt;b&gt;Are credentials expired?&lt;/b&gt;" style="shape=rhombus;html=1;verticalLabelPosition=bottom;verticalAlignment=top;fillColor=#fff2cc;strokeColor=#d6b656;" vertex="1" parent="1">
          <mxGeometry x="455" y="290" width="40" height="40" as="geometry" />
        </mxCell>
        <mxCell id="IxsgzMZL5CYzRa_-ci6n-14" value="" style="edgeStyle=elbowEdgeStyle;html=1;elbow=horizontal;align=right;verticalAlign=bottom;endArrow=none;rounded=0;labelBackgroundColor=none;startArrow=open;startSize=12;entryX=0.5;entryY=1;entryDx=0;entryDy=0;" edge="1" source="IxsgzMZL5CYzRa_-ci6n-13" parent="1" target="IxsgzMZL5CYzRa_-ci6n-10">
          <mxGeometry relative="1" as="geometry">
            <mxPoint x="170" y="350" as="targetPoint" />
          </mxGeometry>
        </mxCell>
        <mxCell id="IxsgzMZL5CYzRa_-ci6n-15" value="&lt;b&gt;yes&lt;/b&gt;" style="edgeStyle=elbowEdgeStyle;html=1;elbow=horizontal;verticalAlign=bottom;endArrow=open;rounded=0;labelBackgroundColor=none;endSize=12;entryX=0;entryY=0.25;entryDx=0;entryDy=0;exitX=0.935;exitY=0.3;exitDx=0;exitDy=0;exitPerimeter=0;" edge="1" source="IxsgzMZL5CYzRa_-ci6n-13" parent="1" target="IxsgzMZL5CYzRa_-ci6n-12">
          <mxGeometry x="0.0028" y="20" relative="1" as="geometry">
            <mxPoint x="274" y="410" as="targetPoint" />
            <mxPoint x="194" y="410" as="sourcePoint" />
            <Array as="points">
              <mxPoint x="590" y="290" />
            </Array>
            <mxPoint as="offset" />
          </mxGeometry>
        </mxCell>
        <mxCell id="IxsgzMZL5CYzRa_-ci6n-16" value="&lt;b&gt;no&lt;/b&gt;" style="edgeStyle=elbowEdgeStyle;html=1;elbow=vertical;verticalAlign=bottom;endArrow=open;rounded=0;labelBackgroundColor=none;endSize=12;entryX=0;entryY=0;entryDx=0;entryDy=0;" edge="1" source="IxsgzMZL5CYzRa_-ci6n-13" parent="1" target="IxsgzMZL5CYzRa_-ci6n-18">
          <mxGeometry relative="1" as="geometry">
            <mxPoint x="70" y="410" as="targetPoint" />
          </mxGeometry>
        </mxCell>
        <mxCell id="IxsgzMZL5CYzRa_-ci6n-17" value="" style="endArrow=classic;html=1;rounded=0;entryX=0;entryY=0.5;entryDx=0;entryDy=0;exitX=1;exitY=0.5;exitDx=0;exitDy=0;" edge="1" parent="1" source="IxsgzMZL5CYzRa_-ci6n-11" target="IxsgzMZL5CYzRa_-ci6n-10">
          <mxGeometry width="50" height="50" relative="1" as="geometry">
            <mxPoint x="260" y="370" as="sourcePoint" />
            <mxPoint x="310" y="320" as="targetPoint" />
          </mxGeometry>
        </mxCell>
        <mxCell id="IxsgzMZL5CYzRa_-ci6n-18" value="" style="ellipse;html=1;shape=endState;fillColor=#ef0b22;strokeColor=#ff0000;" vertex="1" parent="1">
          <mxGeometry x="300" y="500" width="30" height="30" as="geometry" />
        </mxCell>
        <mxCell id="IxsgzMZL5CYzRa_-ci6n-19" value="" style="endArrow=classic;html=1;rounded=0;exitX=-0.014;exitY=0.804;exitDx=0;exitDy=0;exitPerimeter=0;entryX=1;entryY=0.5;entryDx=0;entryDy=0;" edge="1" parent="1" source="IxsgzMZL5CYzRa_-ci6n-12" target="IxsgzMZL5CYzRa_-ci6n-18">
          <mxGeometry width="50" height="50" relative="1" as="geometry">
            <mxPoint x="260" y="360" as="sourcePoint" />
            <mxPoint x="310" y="310" as="targetPoint" />
          </mxGeometry>
        </mxCell>
      </root>
    </mxGraphModel>
  </diagram>
</mxfile>
